<svg width="35" height="35" xmlns="http://www.w3.org/2000/svg">
 <g id="Layer_1">
  <title>Layer 1</title>
  <path stroke="#e21277" fill="#bf055f" d="m18.27549,8.87605c0.52666,-0.79987 1.49026,-1.84183 -0.1653,-2.0932c-0.46119,-0.19854 -0.92251,-0.54987 -1.3831,-0.15851c-1.02477,0.33952 -1.91312,0.81431 -0.83525,1.70288c0.47798,0.57384 0.91271,1.82591 1.45415,1.9638c0.32315,-0.46538 0.62586,-0.94052 0.9295,-1.41497l0,0zm-2.2639,2.20855c-0.94075,-1.40815 -1.6978,-2.91884 -2.84925,-4.21789c-1.40045,-1.25399 -4.15982,-0.69501 -4.78689,0.92247c-0.83299,1.59915 0.96433,3.50848 2.999,3.30832c1.544,0.02168 3.09679,0.07999 4.63714,-0.01291l0,0.00001zm7.81744,0.04755c2.00089,-0.22494 3.15153,-2.33746 2.0123,-3.74012c-1.00954,-1.4969 -3.91396,-1.54908 -4.9279,-0.02791c-0.87798,1.22979 -1.64002,2.51488 -2.44568,3.7784c1.78118,0.08541 3.5791,0.06549 5.36128,-0.01036l0,0l-0.00001,0zm3.31367,1.80113c0.6821,-0.50336 3.32354,-1.09678 1.32304,-1.57482c-0.49556,-0.11794 -1.07332,-0.65897 -1.5187,-0.51091c-0.96715,1.00844 -2.45422,1.60006 -4.00684,1.5381c-0.30395,0.08379 -1.85421,-0.12744 -1.43534,0.11247c1.09532,0.5238 2.16306,1.09263 3.29602,1.55755c0.79354,-0.35444 1.5637,-0.74489 2.34181,-1.12237l0,0l0.00001,-0.00001zm-15.58398,0.28498c0.58332,-0.28498 1.16663,-0.56996 1.74996,-0.85494c-1.78303,-0.0743 -3.82352,0.14124 -5.17102,-1.06148c-0.37991,-0.35676 -0.74423,-0.76522 -1.27076,-0.31606c-0.6307,0.36441 -2.57063,0.73783 -1.07698,1.18267c1.30061,0.64434 2.59209,1.30442 3.92487,1.9011c0.63508,-0.24977 1.23373,-0.56193 1.84393,-0.85128l0,0zm8.54867,3.1798c0.75592,-0.50937 2.58687,-0.99467 2.64804,-1.54126c-1.70906,-0.82479 -3.36832,-1.74312 -5.15632,-2.44026c-0.61531,-0.19579 -1.1142,0.10546 -1.6095,0.36711c-1.46458,0.73061 -2.96439,1.41589 -4.38133,2.21024c1.85309,0.96101 3.72844,1.8936 5.62203,2.79735c0.96584,-0.45432 1.91918,-0.92721 2.87707,-1.39318l0,0l0.00001,0zm7.58365,1.58989c0.78421,-0.41498 1.56844,-0.82995 2.35266,-1.24491c-0.00642,-1.38988 0.02005,-2.78034 -0.02529,-4.16974c-1.58278,0.74067 -3.14304,1.51833 -4.67698,2.32809c-0.16778,1.43351 -0.08269,2.89074 -0.04622,4.33148c0.80942,-0.39993 1.59916,-0.82767 2.39582,-1.24491zm-18.39217,-0.87564c0.07965,-1.18476 0.25134,-2.53532 -1.4523,-2.88629c-1.07587,-0.42081 -2.5671,-1.49903 -3.39594,-1.48822c-0.02582,1.33495 -0.01216,2.67015 -0.01495,4.00523c1.58923,0.83175 3.15025,1.70354 4.77377,2.48759c0.15743,-0.68815 0.05452,-1.41764 0.08942,-2.11832zm11.38042,4.58722c0.94,-0.49769 1.87999,-0.9954 2.81999,-1.49308c-0.00435,-1.43489 0.0664,-2.87184 -0.01092,-4.30519c-1.03307,0.24846 -2.21464,1.0164 -3.30302,1.49342c-0.81496,0.40035 -1.62994,0.80071 -2.44491,1.20108l0.05943,4.59685c0.97427,-0.4774 1.92263,-0.99158 2.87944,-1.49308l0,0l-0.00001,0.00001zm-3.94041,-0.80535c0,-0.76614 0,-1.53228 0,-2.29842c-1.88703,-0.92485 -3.76801,-1.85846 -5.6624,-2.77267c-0.10476,1.46509 -0.0449,2.93567 -0.06069,4.40329c1.88661,0.9906 3.75366,2.00827 5.66414,2.96624c0.07434,-0.76342 0.04719,-1.53295 0.05895,-2.29844l0,0.00001zm10.99905,3.07987c0.76904,-0.42948 1.53808,-0.85895 2.30712,-1.28843c-0.03209,-1.36164 0.07922,-2.7417 -0.08266,-4.08832c-1.59931,0.76525 -3.14281,1.63646 -4.71361,2.45338c0.03773,1.40886 -0.07749,2.83383 0.09604,4.23064c0.81135,-0.41766 1.59798,-0.86845 2.39311,-1.30728l0.00001,0.00001zm-18.45605,-0.76335c-0.00626,-0.71393 -0.01252,-1.42785 -0.01879,-2.14178c-1.5888,-0.83364 -3.1576,-1.69516 -4.77027,-2.49602c-0.10093,1.36778 -0.0434,2.74088 -0.05857,4.11109c1.60281,0.88978 3.18757,1.80315 4.81188,2.66516c0.06224,-0.7107 0.03135,-1.4262 0.03577,-2.13846l-0.00001,0.00001zm11.43802,4.69161c0.93355,-0.51996 1.86709,-1.03994 2.80064,-1.5599c-0.00217,-1.44986 0.03295,-2.90036 -0.0135,-4.34972c-1.90034,0.98267 -3.78795,1.98344 -5.66165,3.00143c-0.21176,1.4 -0.07446,2.84342 -0.07477,4.2587c0.58154,0.29708 2.06843,-1.0195 2.94926,-1.35051l0,0l0.00001,0zm-3.98102,-0.62065c-0.11289,-0.99973 0.4855,-2.40691 -1.02956,-2.79448c-1.52789,-0.81159 -3.04964,-1.63204 -4.59763,-2.41647c-0.22562,1.37253 0.01036,2.80238 -0.16297,4.1917c1.85633,1.12542 3.76119,2.20131 5.70072,3.22308c0.15557,-0.71603 0.05882,-1.4745 0.08944,-2.20385l0,0.00001l0,0.00001zm-6.49217,-0.2643c-2.25941,-1.26491 -4.51884,-2.52984 -6.77824,-3.79475c0.00256,-3.90371 -0.06175,-7.80837 0.02087,-11.71136c1.1314,-0.58546 2.33541,-1.06541 3.49979,-1.60255c-0.75207,-1.80556 0.33302,-3.99968 2.51375,-4.67551c1.82807,-0.62907 4.03166,-0.06138 5.19715,1.26289c0.84654,-0.3641 1.69308,-0.72822 2.53962,-1.09232c0.8511,0.3674 1.70217,0.7348 2.55327,1.1022c1.21952,-1.2132 3.3089,-1.90554 5.11953,-1.22563c2.17336,0.64067 3.35801,2.82989 2.5786,4.63261c1.17296,0.55538 2.44822,0.98938 3.52369,1.66708c0.04768,3.88059 0.00043,7.76177 -0.0039,11.64259c-4.49569,2.49516 -8.91853,5.08556 -13.48721,7.48584c-1.32849,-0.0003 -2.47517,-1.21002 -3.70793,-1.7005c-1.1918,-0.66081 -2.38061,-1.32543 -3.56897,-1.99059l0,0l-0.00001,0z" id="svg_7"/>
  <text stroke="#000" fill="#0ed3f2" x="47.90812" y="-11.05139" id="svg_10" stroke-width="0" font-size="24" font-family="Noto Sans JP" text-anchor="start" xml:space="preserve" font-style="italic" font-weight="bold">Tintol</text>
 </g>

</svg>