<svg width="100" height="35" xmlns="http://www.w3.org/2000/svg">
 <g id="Layer_1">
  <title>Layer 1</title>
  <path stroke="#e21277" id="svg_7" d="m19.14077,9.9921c0.46892,-0.70031 1.32686,-1.61258 -0.14718,-1.83266c-0.41062,-0.17383 -0.82136,-0.48143 -1.23145,-0.13878c-0.91241,0.29726 -1.70336,0.71295 -0.74367,1.49092c0.42557,0.50241 0.81264,1.59864 1.29471,1.71937c0.28772,-0.40745 0.55724,-0.82345 0.82759,-1.23885l0,0zm-2.01568,1.93365c-0.8376,-1.23288 -1.51165,-2.55553 -2.53685,-3.69289c-1.2469,-1.09791 -3.70373,-0.6085 -4.26204,0.80765c-0.74166,1.4001 0.8586,3.07178 2.67018,2.89653c1.37471,0.01898 2.75725,0.07003 4.12871,-0.0113zm6.96032,0.04163c1.78151,-0.19694 2.80599,-2.04652 1.79167,-3.27459c-0.89885,-1.31058 -3.48482,-1.35627 -4.38759,-0.02444c-0.78172,1.07672 -1.4602,2.20185 -2.17753,3.3081c1.58589,0.07478 3.18668,0.05734 4.77346,-0.00907l0,0zm2.95035,1.57694c0.60731,-0.44071 2.95914,-0.96026 1.17798,-1.3788c-0.44123,-0.10326 -0.95564,-0.57695 -1.35219,-0.44732c-0.86111,0.88292 -2.18513,1.4009 -3.56752,1.34665c-0.27062,0.07336 -1.65091,-0.11158 -1.27797,0.09847c0.97523,0.4586 1.9259,0.95663 2.93464,1.36368c0.70653,-0.31032 1.39225,-0.65217 2.08505,-0.98267l0,0zm-13.87531,0.24951c0.51936,-0.24951 1.03872,-0.49902 1.55809,-0.74853c-1.58753,-0.06505 -3.4043,0.12366 -4.60406,-0.92936c-0.33826,-0.31235 -0.66263,-0.66997 -1.13143,-0.27672c-0.56155,0.31905 -2.28878,0.64599 -0.9589,1.03546c1.15801,0.56414 2.30789,1.14206 3.49454,1.66447c0.56545,-0.21868 1.09846,-0.49199 1.64176,-0.74532l0,0zm7.61137,2.78401c0.67304,-0.44597 2.30324,-0.87086 2.3577,-1.34942c-1.52167,-0.72213 -2.99901,-1.52615 -4.59097,-2.13652c-0.54785,-0.17142 -0.99204,0.09233 -1.43303,0.32142c-1.304,0.63967 -2.63937,1.23965 -3.90095,1.93513c1.64991,0.84139 3.31964,1.6579 5.00562,2.44916c0.85994,-0.39777 1.70876,-0.8118 2.56162,-1.21977l0,0zm6.75216,1.392c0.69823,-0.36333 1.39647,-0.72665 2.09471,-1.08996c-0.00572,-1.21688 0.01785,-2.43427 -0.02252,-3.65073c-1.40924,0.64848 -2.79843,1.32934 -4.16418,2.03831c-0.14938,1.25508 -0.07362,2.53093 -0.04115,3.79234c0.72067,-0.35015 1.42382,-0.72465 2.13314,-1.08996zm-16.37561,-0.76665c0.07092,-1.03729 0.22378,-2.21975 -1.29307,-2.52703c-0.95791,-0.36843 -2.28564,-1.31245 -3.0236,-1.30298c-0.02299,1.16879 -0.01083,2.3378 -0.01331,3.5067c1.41498,0.72822 2.80485,1.4915 4.25036,2.17796c0.14017,-0.6025 0.04854,-1.24119 0.07962,-1.85465zm10.13264,4.01625c0.83694,-0.43574 1.67386,-0.8715 2.5108,-1.30724c-0.00387,-1.25629 0.05912,-2.51438 -0.00972,-3.76932c-0.9198,0.21753 -1.97182,0.88989 -2.94087,1.30753c-0.72561,0.35052 -1.45123,0.70105 -2.17684,1.05158l0.05291,4.02468c0.86745,-0.41798 1.71183,-0.86816 2.56373,-1.30724l0,0zm-3.50837,-0.70511c0,-0.67078 0,-1.34156 0,-2.01234c-1.68013,-0.80973 -3.35488,-1.62714 -5.04156,-2.42756c-0.09327,1.28273 -0.03998,2.57027 -0.05404,3.85521c1.67976,0.8673 3.3421,1.7583 5.04311,2.59703c0.06619,-0.6684 0.04202,-1.34214 0.05249,-2.01235zm9.79309,2.69652c0.68472,-0.37602 1.36944,-0.75204 2.05416,-1.12806c-0.02857,-1.19216 0.07053,-2.40044 -0.0736,-3.57945c-1.42396,0.67 -2.79822,1.43277 -4.1968,2.14801c0.03359,1.2335 -0.06899,2.4811 0.08551,3.70405c0.72239,-0.36567 1.42277,-0.76035 2.13072,-1.14456zm-16.43248,-0.66834c-0.00557,-0.62507 -0.01115,-1.25013 -0.01673,-1.87519c-1.4146,-0.72988 -2.81139,-1.48416 -4.24725,-2.18534c-0.08986,1.19753 -0.03864,2.39972 -0.05215,3.59938c1.42707,0.77903 2.83808,1.57871 4.28429,2.33343c0.05542,-0.62224 0.02791,-1.24868 0.03185,-1.87229zm10.18393,4.10765c0.83119,-0.45524 1.66238,-0.9105 2.49357,-1.36574c-0.00193,-1.2694 0.02934,-2.53935 -0.01202,-3.80831c-1.69198,0.86036 -3.37263,1.73656 -5.04089,2.62784c-0.18854,1.22574 -0.0663,2.4895 -0.06657,3.72862c0.51778,0.2601 1.84164,-0.8926 2.6259,-1.18241l0,0zm-3.54453,-0.5434c-0.10051,-0.87529 0.43227,-2.10732 -0.91668,-2.44665c-1.36037,-0.71057 -2.71527,-1.4289 -4.09353,-2.11569c-0.20088,1.20169 0.00922,2.45357 -0.1451,3.66996c1.6528,0.98534 3.3488,1.92731 5.07568,2.8219c0.13851,-0.62691 0.05237,-1.29097 0.07963,-1.92954l0,0.00001zm-5.78035,-0.2314c-2.01168,-1.10747 -4.02338,-2.21495 -6.03506,-3.32242c0.00228,-3.41782 -0.05498,-6.83646 0.01858,-10.25365c1.00735,-0.51259 2.07935,-0.9328 3.11606,-1.40308c-0.66961,-1.58082 0.29651,-3.50184 2.23814,-4.09355c1.62764,-0.55077 3.58962,-0.05374 4.62732,1.1057c0.75372,-0.31878 1.50745,-0.63758 2.26117,-0.95636c0.75778,0.32167 1.51554,0.64334 2.27332,0.96501c1.08581,-1.06219 2.9461,-1.66836 4.55821,-1.07308c1.93507,0.56093 2.98983,2.47765 2.29588,4.05599c1.04435,0.48625 2.17979,0.86623 3.13734,1.45958c0.04245,3.39757 0.00038,6.79566 -0.00347,10.19344c-4.00277,2.18459 -7.94068,4.45256 -12.00844,6.55408c-1.18283,-0.00026 -2.20379,-1.05941 -3.30138,-1.48884c-1.06113,-0.57856 -2.11959,-1.16045 -3.17766,-1.74282l0,0z" fill="#bf055f"/>
  <text font-weight="bold" font-style="italic" xml:space="preserve" text-anchor="start" font-family="Noto Sans JP" font-size="24" stroke-width="0" id="svg_10" y="25.95929" x="33.13944" stroke="#000" fill="#0ed3f2">Tintol</text>
 </g>
</svg>